<svg width="20" height="15" viewBox="0 0 20 15" fill="none" xmlns="http://www.w3.org/2000/svg">
<g clip-path="url(#clip0_1661_962)">
<g clip-path="url(#clip1_1661_962)">
<rect width="20" height="15" fill="white"/>
<path fill-rule="evenodd" clip-rule="evenodd" d="M0 0V15H20V0H0Z" fill="#AF0100"/>
<mask id="mask0_1661_962" style="mask-type:luminance" maskUnits="userSpaceOnUse" x="0" y="0" width="20" height="15">
<path fill-rule="evenodd" clip-rule="evenodd" d="M0 0V15H20V0H0Z" fill="white"/>
</mask>
<g mask="url(#mask0_1661_962)">
<path fill-rule="evenodd" clip-rule="evenodd" d="M13.7547 7.5C13.7547 11.1792 14.1029 12.4571 16.1999 12.4571C18.2968 12.4571 18.8705 10.6035 18.6935 7.5H13.7547Z" fill="#F7FCFF"/>
<path fill-rule="evenodd" clip-rule="evenodd" d="M16.3125 9.625C16.8993 9.625 17.375 9.06535 17.375 8.375C17.375 7.68464 16.8993 7.125 16.3125 7.125C15.7257 7.125 15.25 7.68464 15.25 8.375C15.25 9.06535 15.7257 9.625 16.3125 9.625Z" fill="#AF0100"/>
<path fill-rule="evenodd" clip-rule="evenodd" d="M14.2458 11.4462C14.6193 12.2795 15.2729 12.6962 16.2063 12.6962C17.1335 12.6962 17.7891 12.2851 18.1731 11.4629L14.2458 11.4462Z" fill="#5EAA22"/>
<path d="M14.762 9.39416L14.4131 8.52399C15.0534 8.26728 15.6708 8.13726 16.2639 8.13726C16.857 8.13726 17.4744 8.26728 18.1147 8.52399L17.7658 9.39416C17.2319 9.18011 16.7317 9.07476 16.2639 9.07476C15.7961 9.07476 15.2959 9.18011 14.762 9.39416Z" fill="#82B2CB"/>
<path fill-rule="evenodd" clip-rule="evenodd" d="M15.625 10C15.9702 10 16.25 9.72018 16.25 9.375C16.25 9.02982 15.9702 8.75 15.625 8.75C15.2798 8.75 15 9.02982 15 9.375C15 9.72018 15.2798 10 15.625 10Z" fill="#FECA00"/>
<path fill-rule="evenodd" clip-rule="evenodd" d="M16 11C16.3452 11 16.625 10.7202 16.625 10.375C16.625 10.0298 16.3452 9.75 16 9.75C15.6548 9.75 15.375 10.0298 15.375 10.375C15.375 10.7202 15.6548 11 16 11Z" fill="#8A4E22"/>
<path fill-rule="evenodd" clip-rule="evenodd" d="M15 10.5C15.3452 10.5 15.625 10.2202 15.625 9.87499C15.625 9.52981 15.3452 9.24999 15 9.24999C14.6548 9.24999 14.375 9.52981 14.375 9.87499C14.375 10.2202 14.6548 10.5 15 10.5Z" fill="#AF0100"/>
<path fill-rule="evenodd" clip-rule="evenodd" d="M17.125 10.5C17.4702 10.5 17.75 10.2202 17.75 9.87499C17.75 9.52981 17.4702 9.24999 17.125 9.24999C16.7798 9.24999 16.5 9.52981 16.5 9.87499C16.5 10.2202 16.7798 10.5 17.125 10.5Z" fill="#AF0100"/>
<path fill-rule="evenodd" clip-rule="evenodd" d="M16.6875 11.875C16.9291 11.875 17.125 11.5952 17.125 11.25C17.125 10.9048 16.9291 10.625 16.6875 10.625C16.4459 10.625 16.25 10.9048 16.25 11.25C16.25 11.5952 16.4459 11.875 16.6875 11.875Z" fill="#AF0100"/>
<path fill-rule="evenodd" clip-rule="evenodd" d="M15.1875 11.875C15.4291 11.875 15.625 11.5952 15.625 11.25C15.625 10.9048 15.4291 10.625 15.1875 10.625C14.9459 10.625 14.75 10.9048 14.75 11.25C14.75 11.5952 14.9459 11.875 15.1875 11.875Z" fill="#AF0100"/>
</g>
<g clip-path="url(#clip2_1661_962)">
<rect width="11" height="9" fill="#2E42A5"/>
<path d="M-1.25269 8.12489L1.22291 9.21064L11.3062 1.18047L12.612 -0.432991L9.96468 -0.79588L5.85197 2.66455L2.54165 4.99607L-1.25269 8.12489Z" fill="#F7FCFF"/>
<path d="M-0.913757 8.88559L0.347444 9.51567L12.1431 -0.582901H10.3722L-0.913757 8.88559Z" fill="#F50100"/>
<path d="M12.5027 8.12489L10.3056 9.52059L-0.0561562 1.18046L-1.36198 -0.432992L1.28532 -0.795882L5.39803 2.66455L8.70835 4.99607L12.5027 8.12489Z" fill="#F7FCFF"/>
<path d="M12.4182 8.67084L11.157 9.30092L6.13431 4.9772L4.64518 4.49412L-1.48763 -0.427466H0.283246L6.41261 4.3773L8.04071 4.95656L12.4182 8.67084Z" fill="#F50100"/>
<path fill-rule="evenodd" clip-rule="evenodd" d="M6 0H5V4H0V5H5V9H6V5H11V4H6V0Z" fill="#F50100"/>
<path fill-rule="evenodd" clip-rule="evenodd" d="M4.0625 0H6.9375V3.0625L11 3V5.875L6.9375 5.9375V9H4.0625V5.9375L0 5.875V3L4.0625 3.0625V0ZM5 4H0V5H5V9H6V5H11V4H6V0H5V4Z" fill="#F7FCFF"/>
</g>
</g>
<rect width="20" height="15" fill="url(#paint0_linear_1661_962)" style="mix-blend-mode:overlay"/>
</g>
<rect x="0.5" y="0.5" width="19" height="14" rx="1" stroke="black" stroke-opacity="0.1" style="mix-blend-mode:multiply"/>
<defs>
<linearGradient id="paint0_linear_1661_962" x1="20" y1="7.45456e-07" x2="1.00613e-06" y2="15" gradientUnits="userSpaceOnUse">
<stop stop-color="white" stop-opacity="0.3"/>
<stop offset="0.262741" stop-opacity="0.27"/>
<stop offset="0.369956" stop-color="white" stop-opacity="0.26"/>
<stop offset="0.487001" stop-opacity="0.55"/>
<stop offset="0.594445" stop-opacity="0.24"/>
<stop offset="0.736408" stop-color="white" stop-opacity="0.3"/>
<stop offset="0.901459" stop-color="#272727" stop-opacity="0.22"/>
<stop offset="1" stop-opacity="0.2"/>
</linearGradient>
<clipPath id="clip0_1661_962">
<rect width="20" height="15" rx="1.5" fill="white"/>
</clipPath>
<clipPath id="clip1_1661_962">
<rect width="20" height="15" fill="white"/>
</clipPath>
<clipPath id="clip2_1661_962">
<rect width="11" height="9" fill="white"/>
</clipPath>
</defs>
</svg>
