<svg width="20" height="15" viewBox="0 0 20 15" fill="none" xmlns="http://www.w3.org/2000/svg">
<g clip-path="url(#clip0_1661_1023)">
<g clip-path="url(#clip1_1661_1023)">
<rect width="20" height="15" fill="white"/>
<path fill-rule="evenodd" clip-rule="evenodd" d="M0 0H20V15H0V0Z" fill="#E31D1C"/>
<path d="M20 13.75V15H0V13.75H20ZM20 12.5H0V11.25H20V12.5ZM20 10H0V8.75H20V10ZM20 7.5H0V6.25H20V7.5ZM20 5H0V3.75H20V5ZM20 2.5H0V1.25H20V2.5Z" fill="#F7FCFF"/>
<rect width="11.25" height="8.75" fill="#2E42A5"/>
<path d="M9.76343 1.37553H10.4187L9.90405 1.89603L10.1033 2.71732L9.46265 2.25541L8.9314 2.62553H9.1687L8.65405 3.14603L8.83081 3.87553H9.20386L9.46167 3.2056L9.76343 3.87553H10.4187L9.90405 4.39603L10.1033 5.21732L9.46265 4.75541L8.9314 5.12553H9.1687L8.65405 5.64603L8.83081 6.37553H9.20386L9.46167 5.7056L9.76343 6.37553H10.4187L9.90405 6.89603L10.1033 7.71732L9.46265 7.25541L8.79956 7.71732L9.02319 6.89603L8.4353 6.37553H8.72632L8.21265 6.00541L7.6814 6.37553H7.9187L7.40405 6.89603L7.60327 7.71732L6.96265 7.25541L6.29956 7.71732L6.52319 6.89603L5.9353 6.37553H6.22632L5.71265 6.00541L5.1814 6.37553H5.4187L4.90405 6.89603L5.10327 7.71732L4.46265 7.25541L3.79956 7.71732L4.02319 6.89603L3.4353 6.37553H3.72632L3.21265 6.00541L2.6814 6.37553H2.9187L2.40405 6.89603L2.60327 7.71732L1.96265 7.25541L1.29956 7.71732L1.52319 6.89603L0.935303 6.37553H1.70386L1.96167 5.7056L2.26343 6.37553H2.57495L2.77319 5.64603L2.1853 5.12553H2.47632L1.96265 4.75541L1.29956 5.21732L1.52319 4.39603L0.935303 3.87553H1.70386L1.96167 3.2056L2.26343 3.87553H2.57495L2.77319 3.14603L2.1853 2.62553H2.47632L1.96265 2.25541L1.29956 2.71732L1.52319 1.89603L0.935303 1.37553H1.70386L1.96167 0.705605L2.26343 1.37553H2.9187L2.40405 1.89603L2.58081 2.62553H2.95386L3.21167 1.9556L3.51343 2.62553H3.82495L4.02319 1.89603L3.4353 1.37553H4.20386L4.46167 0.705605L4.76343 1.37553H5.4187L4.90405 1.89603L5.08081 2.62553H5.45386L5.71167 1.9556L6.01343 2.62553H6.32495L6.52319 1.89603L5.9353 1.37553H6.70386L6.96167 0.705605L7.26343 1.37553H7.9187L7.40405 1.89603L7.58081 2.62553H7.95386L8.21167 1.9556L8.51343 2.62553H8.82495L9.02319 1.89603L8.4353 1.37553H9.20386L9.46167 0.705605L9.76343 1.37553ZM6.4314 5.12553H6.6687L6.15405 5.64603L6.33081 6.37553H6.70386L6.96167 5.7056L7.26343 6.37553H7.57495L7.77319 5.64603L7.1853 5.12553H7.47632L6.96265 4.75541L6.4314 5.12553ZM3.9314 5.12553H4.1687L3.65405 5.64603L3.83081 6.37553H4.20386L4.46167 5.7056L4.76343 6.37553H5.07495L5.27319 5.64603L4.6853 5.12553H4.97632L4.46265 4.75541L3.9314 5.12553ZM7.6814 3.87553H7.9187L7.40405 4.39603L7.58081 5.12553H7.95386L8.21167 4.4556L8.51343 5.12553H8.82495L9.02319 4.39603L8.4353 3.87553H8.72632L8.21265 3.50541L7.6814 3.87553ZM2.6814 3.87553H2.9187L2.40405 4.39603L2.58081 5.12553H2.95386L3.21167 4.4556L3.51343 5.12553H3.82495L4.02319 4.39603L3.4353 3.87553H3.72632L3.21265 3.50541L2.6814 3.87553ZM5.1814 3.87553H5.4187L4.90405 4.39603L5.08081 5.12553H5.45386L5.71167 4.4556L6.01343 5.12553H6.32495L6.52319 4.39603L5.9353 3.87553H6.22632L5.71265 3.50541L5.1814 3.87553ZM3.9314 2.62553H4.1687L3.65405 3.14603L3.83081 3.87553H4.20386L4.46167 3.2056L4.76343 3.87553H5.07495L5.27319 3.14603L4.6853 2.62553H4.97632L4.46265 2.25541L3.9314 2.62553ZM6.4314 2.62553H6.6687L6.15405 3.14603L6.33081 3.87553H6.70386L6.96167 3.2056L7.26343 3.87553H7.57495L7.77319 3.14603L7.1853 2.62553H7.47632L6.96265 2.25541L6.4314 2.62553Z" fill="#F7FCFF"/>
</g>
<rect width="20" height="15" fill="url(#paint0_linear_1661_1023)" style="mix-blend-mode:overlay"/>
</g>
<rect x="0.5" y="0.5" width="19" height="14" rx="1" stroke="black" stroke-opacity="0.1" style="mix-blend-mode:multiply"/>
<defs>
<linearGradient id="paint0_linear_1661_1023" x1="20" y1="7.45456e-07" x2="1.00613e-06" y2="15" gradientUnits="userSpaceOnUse">
<stop stop-color="white" stop-opacity="0.3"/>
<stop offset="0.262741" stop-opacity="0.27"/>
<stop offset="0.369956" stop-color="white" stop-opacity="0.26"/>
<stop offset="0.487001" stop-opacity="0.55"/>
<stop offset="0.594445" stop-opacity="0.24"/>
<stop offset="0.736408" stop-color="white" stop-opacity="0.3"/>
<stop offset="0.901459" stop-color="#272727" stop-opacity="0.22"/>
<stop offset="1" stop-opacity="0.2"/>
</linearGradient>
<clipPath id="clip0_1661_1023">
<rect width="20" height="15" rx="1.5" fill="white"/>
</clipPath>
<clipPath id="clip1_1661_1023">
<rect width="20" height="15" fill="white"/>
</clipPath>
</defs>
</svg>
