<svg xmlns="http://www.w3.org/2000/svg" width="40" height="40" fill="none"><path fill="#61AB6A" d="M10 13.333H6.667V10H10v3.333ZM13.333 10H10V6.667h3.333V10Z"/><path fill="#FDF074" d="M6.667 23.333H10v3.334h3.333v6.666H10V30H6.667v-3.333H3.333v-10h3.334v6.666ZM33.333 26.667H30v-3.334h-3.333V20h6.666v6.667Z"/><path fill="#FDF074" d="M13.333 23.333H10v-10h3.333v10ZM23.333 16.667h3.334V20H20v-6.667h3.333v3.334Z"/><path fill="#E5CE03" d="M16.667 33.333h-3.334V30h3.334v3.333ZM16.667 23.333H20V20h6.667v3.333H30v3.334h-6.667v-3.334H20v3.334h3.333V30h-6.666v-3.333h-3.334V20h3.334v3.333ZM10 23.333H6.667v-6.666H10v6.666ZM36.667 23.333h-3.334V20h3.334v3.333ZM20 20h-3.333V10H20v10ZM30 20h-3.333v-3.333H30V20ZM6.667 16.667H3.333v-3.334h3.334v3.334Z"/><path fill="#988902" d="M16.667 30h-3.334v-3.333h3.334V30ZM26.667 30h-3.334v-3.333h3.334V30ZM13.333 26.667H10v-3.334h3.333v3.334ZM23.333 26.667H20v-3.334h3.333v3.334ZM20 23.333h-3.333V20H20v3.333ZM16.667 20h-3.334v-6.667h3.334V20ZM10 16.667H6.667v-3.334H10v3.334Z"/><path fill="#4F9558" d="M16.667 13.333h-3.334V10h3.334v3.333Z"/><path fill="#3B6F41" d="M13.333 13.333H10V10h3.333v3.333ZM16.667 10h-3.334V6.667h3.334V10Z"/><path fill="#221F20" d="M16.667 36.667H10v-3.334h6.667v3.334ZM10 33.333H6.667V30H10v3.333ZM26.667 33.333h-10V30h10v3.333ZM6.667 30H3.333v-3.333h3.334V30ZM33.333 30h-6.666v-3.333h6.666V30ZM3.333 26.667H0V13.333h3.333v13.334ZM36.667 26.667h-3.334v-3.334h3.334v3.334ZM40 23.333h-3.333V20H40v3.333ZM36.667 20H30v-3.333h6.667V20ZM30 16.667h-6.667v-3.334H30v3.334ZM6.667 13.333H3.333V10h3.334v3.333ZM23.333 13.333H20V10h3.333v3.333ZM10 10H6.667V6.667H10V10ZM20 10h-3.333V6.667H20V10ZM16.667 6.667H10V3.333h6.667v3.334Z"/></svg>